name C:/MyDriveSym/Projects/mobilecap/Data\Session20210819_0002\mocap\ForceDataProcessed\walkingTS1_forces.mot
datacolumns 19
datarows 27
range 0.00000000 0.01300000
endheader 
time	R_ground_force_vx	R_ground_force_vy	R_ground_force_vz	R_ground_force_px	R_ground_force_py	R_ground_force_pz	R_ground_torque_x	R_ground_torque_y	R_ground_torque_z	L_ground_force_vx	L_ground_force_vy	L_ground_force_vz	L_ground_force_px	L_ground_force_py	L_ground_force_pz	L_ground_torque_x	L_ground_torque_y	L_ground_torque_z	
          0.00000000	        -25.71556000	        114.53338100	          7.15284800	          0.05264900	          0.00600000	         -0.14717800	          0.00000000	          0.16981700	          0.00000000	          0.00000000	          0.00000000	          0.00000000	          0.63349000	          0.00000000	         -0.16811800	          0.00000000	          0.00000000	          0.00000000	
          0.00050000	        -26.11817500	        116.37476800	          7.20244100	          0.05264900	          0.00600000	         -0.14717800	          0.00000000	          0.16976400	          0.00000000	          0.00000000	          0.00000000	          0.00000000	          0.63349000	          0.00000000	         -0.16811800	          0.00000000	          0.00000000	          0.00000000	
          0.00100000	        -26.52399400	        118.22985200	          7.25172700	          0.05264900	          0.00600000	         -0.14717800	          0.00000000	          0.16974200	          0.00000000	          0.00000000	          0.00000000	          0.00000000	          0.63349000	          0.00000000	         -0.16811800	          0.00000000	          0.00000000	          0.00000000	
          0.00150000	        -26.93300900	        120.09858400	          7.30069400	          0.05264900	          0.00600000	         -0.14717800	          0.00000000	          0.16975000	          0.00000000	          0.00000000	          0.00000000	          0.00000000	          0.63349000	          0.00000000	         -0.16811800	          0.00000000	          0.00000000	          0.00000000	
          0.00200000	        -27.34521200	        121.98091000	          7.34932600	          0.05309300	          0.00600000	         -0.14714100	          0.00000000	          0.16978700	          0.00000000	          0.00000000	          0.00000000	          0.00000000	          0.63349000	          0.00000000	         -0.16811800	          0.00000000	          0.00000000	          0.00000000	
          0.00250000	        -27.76059500	        123.87677500	          7.39761100	          0.05352900	          0.00600000	         -0.14710400	          0.00000000	          0.16985300	          0.00000000	          0.00000000	          0.00000000	          0.00000000	          0.63349000	          0.00000000	         -0.16811800	          0.00000000	          0.00000000	          0.00000000	
          0.00300000	        -28.17914800	        125.78612000	          7.44553500	          0.05395800	          0.00600000	         -0.14706700	          0.00000000	          0.16994700	          0.00000000	          0.00000000	          0.00000000	          0.00000000	          0.63349000	          0.00000000	         -0.16811800	          0.00000000	          0.00000000	          0.00000000	
          0.00350000	        -28.60086200	        127.70888200	          7.49308400	          0.05438100	          0.00600000	         -0.14703000	          0.00000000	          0.17007000	          0.00000000	          0.00000000	          0.00000000	          0.00000000	          0.63349000	          0.00000000	         -0.16811800	          0.00000000	          0.00000000	          0.00000000	
          0.00400000	        -29.02572600	        129.64499600	          7.54024300	          0.05479700	          0.00600000	         -0.14699300	          0.00000000	          0.17022000	          0.00000000	          0.00000000	          0.00000000	          0.00000000	          0.63349000	          0.00000000	         -0.16811800	          0.00000000	          0.00000000	          0.00000000	
          0.00450000	        -29.45372900	        131.59439300	          7.58699900	          0.05520600	          0.00600000	         -0.14695700	          0.00000000	          0.17039800	          0.00000000	          0.00000000	          0.00000000	          0.00000000	          0.63349000	          0.00000000	         -0.16811800	          0.00000000	          0.00000000	          0.00000000	
          0.00500000	        -29.88485800	        133.55700100	          7.63333600	          0.05561000	          0.00600000	         -0.14692000	          0.00000000	          0.17060300	          0.00000000	          0.00000000	          0.00000000	          0.00000000	          0.63349000	          0.00000000	         -0.16811800	          0.00000000	          0.00000000	          0.00000000	
          0.00550000	        -30.31910100	        135.53274500	          7.67924000	          0.05600700	          0.00600000	         -0.14688400	          0.00000000	          0.17083400	          0.00000000	          0.00000000	          0.00000000	          0.00000000	          0.63349000	          0.00000000	         -0.16811800	          0.00000000	          0.00000000	          0.00000000	
          0.00600000	        -30.75644500	        137.52154700	          7.72469600	          0.05639900	          0.00600000	         -0.14684800	          0.00000000	          0.17109200	          0.00000000	          0.00000000	          0.00000000	          0.00000000	          0.63349000	          0.00000000	         -0.16811800	          0.00000000	          0.00000000	          0.00000000	
          0.00650000	        -31.19687800	        139.52332600	          7.76968900	          0.05678500	          0.00600000	         -0.14681200	          0.00000000	          0.17137700	          0.00000000	          0.00000000	          0.00000000	          0.00000000	          0.63349000	          0.00000000	         -0.16811800	          0.00000000	          0.00000000	          0.00000000	
          0.00700000	        -31.64038500	        141.53799900	          7.81420300	          0.05716500	          0.00600000	         -0.14677500	          0.00000000	          0.17168800	          0.00000000	          0.00000000	          0.00000000	          0.00000000	          0.63349000	          0.00000000	         -0.16811800	          0.00000000	          0.00000000	          0.00000000	
          0.00750000	        -32.08695400	        143.56548000	          7.85822300	          0.05754000	          0.00600000	         -0.14674000	          0.00000000	          0.17202400	          0.00000000	          0.00000000	          0.00000000	          0.00000000	          0.63349000	          0.00000000	         -0.16811800	          0.00000000	          0.00000000	          0.00000000	
          0.00800000	        -32.53657000	        145.60567700	          7.90173300	          0.05791000	          0.00600000	         -0.14670400	          0.00000000	          0.17238700	          0.00000000	          0.00000000	          0.00000000	          0.00000000	          0.63349000	          0.00000000	         -0.16811800	          0.00000000	          0.00000000	          0.00000000	
          0.00850000	        -32.98922100	        147.65850000	          7.94471700	          0.05827500	          0.00600000	         -0.14666800	          0.00000000	          0.17277500	          0.00000000	          0.00000000	          0.00000000	          0.00000000	          0.63349000	          0.00000000	         -0.16811800	          0.00000000	          0.00000000	          0.00000000	
          0.00900000	        -33.44489100	        149.72385400	          7.98715900	          0.05863500	          0.00600000	         -0.14663200	          0.00000000	          0.17318800	          0.00000000	          0.00000000	          0.00000000	          0.00000000	          0.63349000	          0.00000000	         -0.16811800	          0.00000000	          0.00000000	          0.00000000	
          0.00950000	        -33.90356800	        151.80163800	          8.02904200	          0.05899100	          0.00600000	         -0.14659700	          0.00000000	          0.17362700	          0.00000000	          0.00000000	          0.00000000	          0.00000000	          0.63349000	          0.00000000	         -0.16811800	          0.00000000	          0.00000000	          0.00000000	
          0.01000000	        -34.36523600	        153.89175300	          8.07034900	          0.05934200	          0.00600000	         -0.14656100	          0.00000000	          0.17409100	          0.00000000	          0.00000000	          0.00000000	          0.00000000	          0.63349000	          0.00000000	         -0.16811800	          0.00000000	          0.00000000	          0.00000000	
          0.01050000	        -34.82988200	        155.99409500	          8.11106400	          0.05968900	          0.00600000	         -0.14652600	          0.00000000	          0.17458100	          0.00000000	          0.00000000	          0.00000000	          0.00000000	          0.63349000	          0.00000000	         -0.16811800	          0.00000000	          0.00000000	          0.00000000	
          0.01100000	        -35.29749200	        158.10855500	          8.15116900	          0.06003100	          0.00600000	         -0.14649000	          0.00000000	          0.17509500	          0.00000000	          0.00000000	          0.00000000	          0.00000000	          0.63349000	          0.00000000	         -0.16811800	          0.00000000	          0.00000000	          0.00000000	
          0.01150000	        -35.76805000	        160.23502400	          8.19064700	          0.06036900	          0.00600000	         -0.14645500	          0.00000000	          0.17563500	          0.00000000	          0.00000000	          0.00000000	          0.00000000	          0.63349000	          0.00000000	         -0.16811800	          0.00000000	          0.00000000	          0.00000000	
          0.01200000	        -36.24154200	        162.37338900	          8.22948000	          0.06070300	          0.00600000	         -0.14642000	          0.00000000	          0.17620000	          0.00000000	          0.00000000	          0.00000000	          0.00000000	          0.63349000	          0.00000000	         -0.16811800	          0.00000000	          0.00000000	          0.00000000	
          0.01250000	        -36.71795300	        164.52353400	          8.26765100	          0.06103300	          0.00600000	         -0.14638400	          0.00000000	          0.17679000	          0.00000000	          0.00000000	          0.00000000	          0.00000000	          0.63349000	          0.00000000	         -0.16811800	          0.00000000	          0.00000000	          0.00000000	
          0.01300000	        -37.19726800	        166.68534100	          8.30514300	          0.06136000	          0.00600000	         -0.14634900	          0.00000000	          0.17740400	          0.00000000	          0.00000000	          0.00000000	          0.00000000	          0.63349000	          0.00000000	         -0.16811800	          0.00000000	          0.00000000	          0.00000000	
